<svg id="레이어_1" data-name="레이어 1" xmlns="http://www.w3.org/2000/svg" viewBox="0 0 500 500"><defs><style>.cls-1{fill:#fff;}</style></defs><path class="cls-1" d="M500,44.91H332.76V78.25H458.22l-64,281.43H341.77l43.09-202H60.16L34.19,43.6H0L79.49,393a71.44,71.44,0,0,0,142,0h57.3a71.45,71.45,0,0,0,142,0h.06ZM343.65,191.07l-36,168.61H106.1L67.74,191.07Zm-193.17,232a38.18,38.18,0,0,1-37.25-30h74.5A38.18,38.18,0,0,1,150.48,423.06Zm199.28,0a38.18,38.18,0,0,1-37.25-30H387A38.17,38.17,0,0,1,349.76,423.06Z"/></svg>