<svg xmlns="http://www.w3.org/2000/svg" viewBox="0 0 500 456.34"><defs><style>.cls-1{fill:#e94b58;}</style></defs><g id="레이어_2" data-name="레이어 2"><g id="레이어_1-2" data-name="레이어 1"><path class="cls-1" d="M479.87,65.62A127.06,127.06,0,0,0,400.7,5.16C334.19-11.85,280,15.52,250,53.5c-30-38-84.19-65.35-150.7-48.34A127.07,127.07,0,0,0,20.13,65.62C4,93.71-10.74,143.07,10.77,218.66c22.14,77.85,104.66,148.25,164.87,190.9,4.36,3.27,8.49,6.13,12.4,8.62,29.45,20.08,51.29,32.27,53.9,33.71l8.06,4.45,8.06-4.45a810.51,810.51,0,0,0,101.26-68.68c71.24-56.59,115-112,129.92-164.55C510.74,143.07,496,93.71,479.87,65.62Z"/></g></g></svg>