<svg id="레이어_1" data-name="레이어 1" xmlns="http://www.w3.org/2000/svg" viewBox="0 0 500 500"><defs><style>.cls-1{fill:#333;}</style></defs><path class="cls-1" d="M361.9,0H138.1C62,0,0,62,0,138.1V361.9C0,438.05,62,500,138.1,500H361.9C438.05,500,500,438.05,500,361.9V138.1C500,62,438.05,0,361.9,0ZM466.7,361.9A104.93,104.93,0,0,1,361.9,466.7H138.1A104.93,104.93,0,0,1,33.3,361.9V138.1A104.93,104.93,0,0,1,138.1,33.3H361.9A104.93,104.93,0,0,1,466.7,138.1Z"/><path class="cls-1" d="M250,134.6A126.29,126.29,0,1,0,376.28,260.89,126.43,126.43,0,0,0,250,134.6Zm0,219.27a93,93,0,1,1,93-93A93.08,93.08,0,0,1,250,353.87Z"/><circle class="cls-1" cx="370.52" cy="119.28" r="28.13"/></svg>