<svg id="레이어_1" data-name="레이어 1" xmlns="http://www.w3.org/2000/svg" viewBox="0 0 500 500"><defs><style>.cls-1{fill:#333;}</style></defs><path class="cls-1" d="M250,23.65C112.61,23.65.78,124.52,0,248.75H0V476.26l.45-.2v.2L99.88,431c43.09,29.29,96,45.31,150.12,45.31,137.85,0,250-101.54,250-226.35S387.85,23.65,250,23.65Zm0,419.43c-50.48,0-99.63-15.81-138.39-44.52l-7.88-5.82-70.45,32V249.84C33.38,143.45,130.56,56.92,250,56.92S466.73,143.53,466.73,250,369.5,443.08,250,443.08Z"/><circle class="cls-1" cx="242.52" cy="256.29" r="27.36"/><circle class="cls-1" cx="337.71" cy="256.29" r="27.36"/><path class="cls-1" d="M146.11,228.93a27.36,27.36,0,1,0,27.35,27.36A27.36,27.36,0,0,0,146.11,228.93Z"/></svg>