<svg id="레이어_1" data-name="레이어 1" xmlns="http://www.w3.org/2000/svg" viewBox="0 0 500 500"><defs><style>.cls-1{fill:#333;}</style></defs><path class="cls-1" d="M402.82,194a97.21,97.21,0,1,0-93.05-69.18L175.24,192.27a97.18,97.18,0,1,0,0,115.57l134.5,67.38a97.37,97.37,0,1,0,15-29.82L190.24,278a96.92,96.92,0,0,0,0-55.95l134.53-67.45A97.08,97.08,0,0,0,402.82,194Zm0,145.36A63.82,63.82,0,1,1,339,403.18,63.88,63.88,0,0,1,402.82,339.36ZM161,250.07a63.81,63.81,0,1,1-63.81-63.81A63.88,63.88,0,0,1,161,250.07ZM339,96.82a63.81,63.81,0,1,1,63.81,63.82A63.88,63.88,0,0,1,339,96.82Z"/></svg>